<!--?xml version="1.0" standalone="no"?-->
              <svg id="sw-js-blob-svg" viewBox="0 0 100 100" xmlns="http://www.w3.org/2000/svg" version="1.1">
                    <defs> 
                        <linearGradient id="sw-gradient" x1="0" x2="1" y1="1" y2="0">
                            <stop id="stop1" stop-color="rgba(239.81, 119.827, 63.041, 1)" offset="0%"></stop>
                            <stop id="stop2" stop-color="rgba(251, 168, 31, 1)" offset="100%"></stop>
                        </linearGradient>
                    </defs>
                <path fill="none" d="M9.4,-19.7C13.2,-14,18.1,-13.6,18.9,-11.2C19.8,-8.8,16.6,-4.4,17.2,0.4C17.8,5.1,22.2,10.2,20.7,11.5C19.2,12.8,11.8,10.2,7.4,8.8C2.9,7.4,1.5,7.2,-2.8,12.1C-7.1,17,-14.3,27.1,-19.3,28.8C-24.4,30.6,-27.4,24,-26.8,17.9C-26.3,11.7,-22.2,5.8,-19.5,1.6C-16.8,-2.7,-15.4,-5.4,-14.6,-9.2C-13.7,-12.9,-13.3,-17.7,-11,-24.2C-8.6,-30.8,-4.3,-39.3,-0.8,-37.9C2.8,-36.6,5.5,-25.5,9.4,-19.7Z" width="100%" height="100%" transform="translate(50 50)" stroke-width="1" style="transition: all 0.3s;" stroke="url(#sw-gradient)"></path>
              </svg>