<!--?xml version="1.0" standalone="no"?-->
              <svg id="sw-js-blob-svg" viewBox="0 0 100 100" xmlns="http://www.w3.org/2000/svg" version="1.1">
                    <defs> 
                        <linearGradient id="sw-gradient" x1="0" x2="1" y1="1" y2="0">
                            <stop id="stop1" stop-color="rgba(239.81, 119.827, 63.041, 1)" offset="0%"></stop>
                            <stop id="stop2" stop-color="rgba(251, 168, 31, 1)" offset="100%"></stop>
                        </linearGradient>
                    </defs>
                <path fill="none" d="M15.3,-28.4C19.9,-23.8,23.9,-19.9,28,-15.3C32.2,-10.7,36.6,-5.4,36.2,-0.2C35.9,4.9,30.8,9.9,27.1,15.4C23.5,20.9,21.3,27,17,32C12.7,37,6.4,41,0.3,40.5C-5.8,40.1,-11.7,35.2,-18.7,31.8C-25.7,28.3,-33.8,26.2,-36,21.2C-38.1,16.1,-34.4,8.1,-31.7,1.5C-29.1,-5,-27.5,-10,-26,-16.2C-24.4,-22.4,-23,-29.8,-18.7,-34.7C-14.4,-39.5,-7.2,-41.7,-0.9,-40.1C5.3,-38.5,10.6,-33.1,15.3,-28.4Z" width="100%" height="100%" transform="translate(50 50)" stroke-width="1" style="transition: all 0.3s;" stroke="url(#sw-gradient)"></path>
              </svg>