<svg xmlns="http://www.w3.org/2000/svg" version="1.1" width="100%" height="100%">
  <defs>
    <linearGradient id="sw-gradient" x1="0" x2="1" y1="1" y2="0">
      <stop id="stop1" stop-color="rgba(239.81, 119.827, 63.041, 1)" offset="0%"></stop>
      <stop id="stop2" stop-color="rgba(251, 168, 31, 1)" offset="100%"></stop>
    </linearGradient>
    
    <pattern id="blob-pattern" x="0" y="0" width="1600" height="800" patternUnits="userSpaceOnUse">
      <!-- Blob 1 -->
      <path fill="none" d="M36.6,-54.2C50.8,-47.6,68.4,-43.4,75,-32.9C81.5,-22.5,76.9,-5.9,74.4,11.1C72,28.1,71.7,45.4,62.6,55.1C53.5,64.8,35.6,66.9,19.8,67.9C3.9,68.9,-9.9,68.8,-24.2,65.3C-38.5,61.8,-53.3,54.9,-62.9,43.3C-72.6,31.7,-77.1,15.8,-76.7,0.2C-76.3,-15.4,-71,-30.8,-61.4,-41.8C-51.8,-52.8,-37.9,-59.3,-24.9,-63.9C-11.8,-68.5,0.4,-71.1,11.1,-67.3C21.8,-63.5,30.9,-53.3,36.6,-54.2Z" transform="translate(80 100) scale(1.2)" stroke-width="2" style="transition: all 0.3s ease 0s;" stroke="url(#sw-gradient)"></path>
      
      <!-- Blob 2 -->
      <path fill="none" d="M32.4,-42C44.9,-42.4,60.6,-38.4,70,-28.8C79.6,-19,83,-3.2,76.8,9.2C70.8,21.6,54.8,30.8,42.4,37.2C29.8,43.6,20.6,47.4,12.2,46.2C3.8,45,-3.8,38.8,-18,38.2C-32.2,37.6,-52.8,42.6,-57.2,36.8C-61.6,31,-49.6,14.4,-42,2.4C-34.3,-9.6,-31,-17,-25.8,-22.4C-20.6,-27.8,-13.6,-31.2,-5.1,-36.5C3.4,-41.8,13.4,-49.1,32.4,-42Z" transform="translate(200 250) scale(1.2)" stroke-width="2" style="transition: all 0.3s ease 0s;" stroke="url(#sw-gradient)"></path>
      <path fill="none" d="M32.4,-42C44.9,-42.4,60.6,-38.4,70,-28.8C79.6,-19,83,-3.2,76.8,9.2C70.8,21.6,54.8,30.8,42.4,37.2C29.8,43.6,20.6,47.4,12.2,46.2C3.8,45,-3.8,38.8,-18,38.2C-32.2,37.6,-52.8,42.6,-57.2,36.8C-61.6,31,-49.6,14.4,-42,2.4C-34.3,-9.6,-31,-17,-25.8,-22.4C-20.6,-27.8,-13.6,-31.2,-5.1,-36.5C3.4,-41.8,13.4,-49.1,32.4,-42Z" transform="translate(1000 500) scale(0.8)" stroke-width="3" style="transition: all 0.3s ease 0s;" stroke="url(#sw-gradient)"></path>

      <!-- Blob 3 -->
      <path fill="none" d="M34.2,-56.4C43.4,-47.4,48.8,-36.2,54.8,-24.6C60.8,-13,67.4,-1,67.1,11.2C66.8,23.4,59.6,35.8,49.2,43.8C38.8,51.8,25.2,55.4,11.8,57.9C-1.6,60.4,-14.8,61.8,-28.2,58.6C-41.6,55.4,-55.2,47.6,-61.8,35.8C-68.4,24,-68,8.2,-65.7,-6.8C-63.4,-21.8,-59.2,-36,-49.7,-45C-40.2,-54,-25.4,-57.8,-11.8,-58.7C1.8,-59.6,14.2,-57.6,34.2,-56.4Z" transform="translate(300 400) scale(0.4)" stroke-width="6" style="transition: all 0.3s ease 0s;" stroke="url(#sw-gradient)"></path>
      
      <path fill="none" d="M8.7,-13.4C11.1,-12.1,12.5,-9.2,13.4,-6.4C14.3,-3.5,14.6,-0.7,17.2,4.7C19.9,10.1,24.9,18,24.3,23.9C23.7,29.8,17.3,33.7,10.8,34.7C4.2,35.7,-2.6,33.9,-10.5,32.9C-18.3,31.9,-27.3,31.6,-33.5,27.4C-39.7,23.1,-43.1,14.9,-38.7,9C-34.2,3,-21.8,-0.6,-17.6,-7.2C-13.3,-13.8,-17.2,-23.2,-15.6,-24.9C-14,-26.5,-7,-20.3,-1.9,-17.3C3.2,-14.4,6.4,-14.7,8.7,-13.4Z" width="100%" height="100%" transform="translate(400 300) scale(1.2)" stroke-width="2" style="transition: all 0.3s;" stroke="url(#sw-gradient)"></path>

      <path fill="none" d="M8.7,-13.4C11.1,-12.1,12.5,-9.2,13.4,-6.4C14.3,-3.5,14.6,-0.7,17.2,4.7C19.9,10.1,24.9,18,24.3,23.9C23.7,29.8,17.3,33.7,10.8,34.7C4.2,35.7,-2.6,33.9,-10.5,32.9C-18.3,31.9,-27.3,31.6,-33.5,27.4C-39.7,23.1,-43.1,14.9,-38.7,9C-34.2,3,-21.8,-0.6,-17.6,-7.2C-13.3,-13.8,-17.2,-23.2,-15.6,-24.9C-14,-26.5,-7,-20.3,-1.9,-17.3C3.2,-14.4,6.4,-14.7,8.7,-13.4Z" width="100%" height="100%" transform="translate(800 450) scale(1.2)" stroke-width="2" style="transition: all 0.3s;" stroke="url(#sw-gradient)"></path>

      <path fill="none" d="M21.4,-35C27.5,-29.5,31.9,-23,36,-15.9C40.2,-8.7,44.1,-0.9,43,6.1C41.9,13.2,35.8,19.4,29.6,24.5C23.4,29.6,17.2,33.6,10,37.1C2.8,40.7,-5.5,43.8,-12.5,42C-19.5,40.2,-25.2,33.5,-31.1,26.9C-37,20.3,-43.1,13.7,-44.5,6.2C-45.9,-1.3,-42.6,-9.6,-38,-16.4C-33.4,-23.1,-27.4,-28.2,-20.8,-33.5C-14.3,-38.7,-7.1,-44,0.3,-44.5C7.7,-44.9,15.4,-40.4,21.4,-35Z" width="100%" height="100%" transform="translate(500 450) scale(1.2)" stroke-width="2" style="transition: all 0.3s;" stroke="url(#sw-gradient)"></path>

      <path fill="none" d="M21.4,-35C27.5,-29.5,31.9,-23,36,-15.9C40.2,-8.7,44.1,-0.9,43,6.1C41.9,13.2,35.8,19.4,29.6,24.5C23.4,29.6,17.2,33.6,10,37.1C2.8,40.7,-5.5,43.8,-12.5,42C-19.5,40.2,-25.2,33.5,-31.1,26.9C-37,20.3,-43.1,13.7,-44.5,6.2C-45.9,-1.3,-42.6,-9.6,-38,-16.4C-33.4,-23.1,-27.4,-28.2,-20.8,-33.5C-14.3,-38.7,-7.1,-44,0.3,-44.5C7.7,-44.9,15.4,-40.4,21.4,-35Z" width="100%" height="100%" transform="translate(0 450) scale(1.2)" stroke-width="2" style="transition: all 0.3s;" stroke="url(#sw-gradient)"></path>
      
      <path fill="none" d="M15.8,-28.1C19.6,-22.1,21.3,-16.3,18.9,-11.6C16.4,-6.8,9.9,-3.2,10.9,2.8C12,8.8,20.7,17.1,20.9,19.7C21.1,22.3,12.9,19,6.8,18.9C0.7,18.7,-3.2,21.6,-10.2,24.3C-17.2,27.1,-27.2,29.7,-29.6,26.1C-32,22.5,-26.8,12.8,-24.4,5.7C-22,-1.4,-22.3,-5.9,-21.9,-11.3C-21.5,-16.8,-20.3,-23.2,-16.5,-29.2C-12.7,-35.2,-6.4,-40.8,-0.2,-40.5C6,-40.2,11.9,-34,15.8,-28.1Z" width="100%" height="100%" transform="translate(600 50) scale(1.2)" stroke-width="2" style="transition: all 0.3s;" stroke="url(#sw-gradient)"></path>

      <path fill="none" d="M16.4,-8.3C23.5,2.8,33,13.7,30.6,19C28.3,24.4,14.2,24.2,2.1,23C-10,21.8,-20,19.6,-22.3,14.2C-24.6,8.9,-19.3,0.4,-14.3,-9.5C-9.3,-19.4,-4.6,-30.9,0,-30.9C4.7,-30.9,9.3,-19.5,16.4,-8.3Z" width="100%" height="100%" transform="translate(700 180) scale(1.2)" stroke-width="2" style="transition: all 0.3s;" stroke="url(#sw-gradient)"></path>
      <path fill="none" d="M16.4,-8.3C23.5,2.8,33,13.7,30.6,19C28.3,24.4,14.2,24.2,2.1,23C-10,21.8,-20,19.6,-22.3,14.2C-24.6,8.9,-19.3,0.4,-14.3,-9.5C-9.3,-19.4,-4.6,-30.9,0,-30.9C4.7,-30.9,9.3,-19.5,16.4,-8.3Z" width="100%" height="100%" transform="translate(60 680) scale(1.2)" stroke-width="2" style="transition: all 0.3s;" stroke="url(#sw-gradient)"></path>
      <path fill="none" d="M16.4,-8.3C23.5,2.8,33,13.7,30.6,19C28.3,24.4,14.2,24.2,2.1,23C-10,21.8,-20,19.6,-22.3,14.2C-24.6,8.9,-19.3,0.4,-14.3,-9.5C-9.3,-19.4,-4.6,-30.9,0,-30.9C4.7,-30.9,9.3,-19.5,16.4,-8.3Z" width="100%" height="100%" transform="translate(1100 380) scale(1.2)" stroke-width="2" style="transition: all 0.3s;" stroke="url(#sw-gradient)"></path>
      
      <path fill="none" d="M-1.8,-0.1C-8.4,10.3,-23.8,16.4,-24.9,9.2C-26.1,1.9,-13.1,-18.7,-5.4,-21.8C2.4,-24.9,4.7,-10.4,-1.8,-0.1Z" width="100%" height="100%" transform="translate(380 140) scale(1.2)" stroke-width="2" style="transition: all 0.3s;" stroke="url(#sw-gradient)"></path>
    
      <path fill="none" d="M7.8,-13.3C11,-10.1,15.2,-9.5,21.8,-6.6C28.4,-3.7,37.3,1.5,39.5,7.7C41.8,14,37.4,21.3,30.9,24.3C24.4,27.3,15.8,26,8.5,27.4C1.2,28.9,-4.9,33.1,-8.4,31C-11.9,28.8,-12.8,20.3,-13.6,14.5C-14.4,8.7,-15.1,5.5,-17.2,1.5C-19.3,-2.5,-22.8,-7.2,-24.1,-13.7C-25.4,-20.2,-24.5,-28.5,-20.1,-31.3C-15.8,-34,-7.9,-31.2,-2.8,-26.9C2.3,-22.5,4.6,-16.6,7.8,-13.3Z" width="100%" height="100%" transform="translate(1200 500) scale(1.2)" stroke-width="2" style="transition: all 0.3s;" stroke="url(#sw-gradient)"></path>

      <path fill="none" d="M23.2,-34.3C30.3,-36,36.6,-30.4,36.7,-23.4C36.8,-16.5,30.6,-8.3,26.6,-2.3C22.7,3.7,20.8,7.3,20.1,13C19.3,18.7,19.5,26.4,16.3,30.5C13.2,34.5,6.6,34.8,2.1,31.1C-2.4,27.5,-4.7,19.9,-11.3,17.9C-17.9,15.8,-28.7,19.3,-34.1,17.3C-39.4,15.2,-39.2,7.6,-35.2,2.3C-31.1,-3,-23.2,-5.9,-18.9,-9.6C-14.6,-13.4,-13.7,-17.9,-11.2,-18.8C-8.6,-19.8,-4.3,-17.1,1.8,-20.3C8,-23.5,16,-32.5,23.2,-34.3Z" width="100%" height="100%" transform="translate(1400 50) scale(1.2)" stroke-width="2" style="transition: all 0.3s;" stroke="url(#sw-gradient)"></path>
      <path fill="none" d="M23.2,-34.3C30.3,-36,36.6,-30.4,36.7,-23.4C36.8,-16.5,30.6,-8.3,26.6,-2.3C22.7,3.7,20.8,7.3,20.1,13C19.3,18.7,19.5,26.4,16.3,30.5C13.2,34.5,6.6,34.8,2.1,31.1C-2.4,27.5,-4.7,19.9,-11.3,17.9C-17.9,15.8,-28.7,19.3,-34.1,17.3C-39.4,15.2,-39.2,7.6,-35.2,2.3C-31.1,-3,-23.2,-5.9,-18.9,-9.6C-14.6,-13.4,-13.7,-17.9,-11.2,-18.8C-8.6,-19.8,-4.3,-17.1,1.8,-20.3C8,-23.5,16,-32.5,23.2,-34.3Z" width="100%" height="100%" transform="translate(220 520) scale(1.2)" stroke-width="2" style="transition: all 0.3s;" stroke="url(#sw-gradient)"></path>
      <path fill="none" d="M23.2,-34.3C30.3,-36,36.6,-30.4,36.7,-23.4C36.8,-16.5,30.6,-8.3,26.6,-2.3C22.7,3.7,20.8,7.3,20.1,13C19.3,18.7,19.5,26.4,16.3,30.5C13.2,34.5,6.6,34.8,2.1,31.1C-2.4,27.5,-4.7,19.9,-11.3,17.9C-17.9,15.8,-28.7,19.3,-34.1,17.3C-39.4,15.2,-39.2,7.6,-35.2,2.3C-31.1,-3,-23.2,-5.9,-18.9,-9.6C-14.6,-13.4,-13.7,-17.9,-11.2,-18.8C-8.6,-19.8,-4.3,-17.1,1.8,-20.3C8,-23.5,16,-32.5,23.2,-34.3Z" width="100%" height="100%" transform="translate(650 300) scale(1.2)" stroke-width="2" style="transition: all 0.3s;" stroke="url(#sw-gradient)"></path>


      <path fill="none" d="M15.8,-28.1C19.6,-22.1,21.3,-16.3,18.9,-11.6C16.4,-6.8,9.9,-3.2,10.9,2.8C12,8.8,20.7,17.1,20.9,19.7C21.1,22.3,12.9,19,6.8,18.9C0.7,18.7,-3.2,21.6,-10.2,24.3C-17.2,27.1,-27.2,29.7,-29.6,26.1C-32,22.5,-26.8,12.8,-24.4,5.7C-22,-1.4,-22.3,-5.9,-21.9,-11.3C-21.5,-16.8,-20.3,-23.2,-16.5,-29.2C-12.7,-35.2,-6.4,-40.8,-0.2,-40.5C6,-40.2,11.9,-34,15.8,-28.1Z" width="100%" height="100%" transform="translate(1400 400) scale(1.2)" stroke-width="2" style="transition: all 0.3s;" stroke="url(#sw-gradient)"></path>

      <path fill="none" d="M9.4,-19.7C13.2,-14,18.1,-13.6,18.9,-11.2C19.8,-8.8,16.6,-4.4,17.2,0.4C17.8,5.1,22.2,10.2,20.7,11.5C19.2,12.8,11.8,10.2,7.4,8.8C2.9,7.4,1.5,7.2,-2.8,12.1C-7.1,17,-14.3,27.1,-19.3,28.8C-24.4,30.6,-27.4,24,-26.8,17.9C-26.3,11.7,-22.2,5.8,-19.5,1.6C-16.8,-2.7,-15.4,-5.4,-14.6,-9.2C-13.7,-12.9,-13.3,-17.7,-11,-24.2C-8.6,-30.8,-4.3,-39.3,-0.8,-37.9C2.8,-36.6,5.5,-25.5,9.4,-19.7Z" width="100%" height="100%" transform="translate(1200 100) scale(1.2)" stroke-width="2" style="transition: all 0.3s;" stroke="url(#sw-gradient)"></path>
      <path fill="none" d="M9.4,-19.7C13.2,-14,18.1,-13.6,18.9,-11.2C19.8,-8.8,16.6,-4.4,17.2,0.4C17.8,5.1,22.2,10.2,20.7,11.5C19.2,12.8,11.8,10.2,7.4,8.8C2.9,7.4,1.5,7.2,-2.8,12.1C-7.1,17,-14.3,27.1,-19.3,28.8C-24.4,30.6,-27.4,24,-26.8,17.9C-26.3,11.7,-22.2,5.8,-19.5,1.6C-16.8,-2.7,-15.4,-5.4,-14.6,-9.2C-13.7,-12.9,-13.3,-17.7,-11,-24.2C-8.6,-30.8,-4.3,-39.3,-0.8,-37.9C2.8,-36.6,5.5,-25.5,9.4,-19.7Z" width="100%" height="100%" transform="translate(540 200) scale(1.6)" stroke-width="1.5" style="transition: all 0.3s;" stroke="url(#sw-gradient)"></path>
      <path fill="none" d="M9.4,-19.7C13.2,-14,18.1,-13.6,18.9,-11.2C19.8,-8.8,16.6,-4.4,17.2,0.4C17.8,5.1,22.2,10.2,20.7,11.5C19.2,12.8,11.8,10.2,7.4,8.8C2.9,7.4,1.5,7.2,-2.8,12.1C-7.1,17,-14.3,27.1,-19.3,28.8C-24.4,30.6,-27.4,24,-26.8,17.9C-26.3,11.7,-22.2,5.8,-19.5,1.6C-16.8,-2.7,-15.4,-5.4,-14.6,-9.2C-13.7,-12.9,-13.3,-17.7,-11,-24.2C-8.6,-30.8,-4.3,-39.3,-0.8,-37.9C2.8,-36.6,5.5,-25.5,9.4,-19.7Z" width="100%" height="100%" transform="translate(1340 600) scale(1.2)" stroke-width="2" style="transition: all 0.3s;" stroke="url(#sw-gradient)"></path>

    </pattern>
  </defs>
  
  <rect width="1000%" height="1000%" fill="url(#blob-pattern)"></rect>
</svg>